<svg xmlns="http://www.w3.org/2000/svg" width="1280" height="320" viewBox="0 0 1280 320" role="img" aria-label="Krishi Attri — robotics, perception, verifiable AI tools">
  <defs>
    <pattern id="grid" width="40" height="40" patternUnits="userSpaceOnUse">
      <path d="M 40 0 L 0 0 0 40" fill="none" stroke="#1b1e24" stroke-width="1"/>
    </pattern>
    <radialGradient id="glow" cx="22%" cy="40%" r="70%">
      <stop offset="0%" stop-color="#3ebfc6" stop-opacity="0.10"/>
      <stop offset="100%" stop-color="#3ebfc6" stop-opacity="0"/>
    </radialGradient>
  </defs>
  <rect width="1280" height="320" fill="#0C0D10"/>
  <rect width="1280" height="320" fill="url(#grid)"/>
  <rect width="1280" height="320" fill="url(#glow)"/>
  <!-- registration marks -->
  <g stroke="#3ebfc6" stroke-width="1.4" opacity="0.85">
    <path d="M 24 12 v 16 M 16 20 h 16"/>
    <path d="M 1256 12 v 16 M 1248 20 h 16"/>
    <path d="M 24 292 v 16 M 16 300 h 16"/>
    <path d="M 1256 292 v 16 M 1248 300 h 16"/>
  </g>
  <!-- constellation: home + four stations, echoing the portfolio grid -->
  <g transform="translate(1020,160)">
    <g stroke="#2a6f74" stroke-width="1.2" fill="none">
      <path d="M 0 0 L 0 -78 M 0 0 L 118 0 M 0 0 L -118 0 M 0 0 L 0 78"/>
    </g>
    <circle cx="0" cy="0" r="7" fill="#3ebfc6"/>
    <circle cx="0" cy="-78" r="4.5" fill="none" stroke="#3ebfc6" stroke-width="1.6"/>
    <circle cx="118" cy="0" r="4.5" fill="none" stroke="#3ebfc6" stroke-width="1.6"/>
    <circle cx="-118" cy="0" r="4.5" fill="none" stroke="#3ebfc6" stroke-width="1.6"/>
    <circle cx="0" cy="78" r="4.5" fill="none" stroke="#3ebfc6" stroke-width="1.6"/>
    <g fill="#5a6470" font-family="ui-monospace,Menlo,monospace" font-size="11">
      <text x="14" y="-74">research</text>
      <text x="64" y="-10">software</text>
      <text x="-116" y="-10" text-anchor="end" dx="-8">experience</text>
      <text x="14" y="92">contact</text>
    </g>
  </g>
  <!-- type -->
  <g font-family="Georgia, 'Times New Roman', serif">
    <text x="80" y="148" fill="#E9E4D6" font-size="58" font-weight="600">Krishi Attri</text>
    <text x="80" y="196" fill="#3ebfc6" font-size="26" font-style="italic">I give robots a sense of touch.</text>
  </g>
  <g font-family="ui-monospace,Menlo,monospace" font-size="14" fill="#8a93a0">
    <text x="80" y="244">VISUO-TACTILE SLAM · 3D GAUSSIAN SPLATTING · VERIFIABLE AI TOOLING</text>
    <text x="80" y="270">SNU SRBL → UCF</text>
  </g>
  <line x1="80" y1="212" x2="560" y2="212" stroke="#3ebfc6" stroke-width="1.6"/>
</svg>
