<svg xmlns="http://www.w3.org/2000/svg" width="854" height="232" viewBox="0 0 854 232" role="img" aria-label="Live GitHub stats for Archerkattri">
<defs><pattern id="g" width="34" height="34" patternUnits="userSpaceOnUse"><path d="M 34 0 L 0 0 0 34" fill="none" stroke="#1b1e24" stroke-width="1"/></pattern></defs>
<rect width="854" height="232" rx="14" fill="#0C0D10"/>
<rect width="854" height="232" rx="14" fill="url(#g)"/>
<rect x="0.5" y="0.5" width="853" height="231" rx="14" fill="none" stroke="#1b1e24" stroke-width="1"/>
<text x="28" y="46" font-family="Georgia,serif" font-size="23" font-weight="600" fill="#E9E4D6">Krishi Attri</text><text x="28" y="67" font-family="ui-monospace,Menlo,monospace" font-size="11.5" fill="#8a93a0">LIVE GITHUB STATS &#183; SELF-SYNCED ON GITHUB ACTIONS</text>
<circle cx="774" cy="42" r="4.5" fill="#3ebfc6"><animate attributeName="opacity" values="1;0.25;1" dur="1.6s" repeatCount="indefinite"/></circle><circle cx="774" cy="42" r="4.5" fill="none" stroke="#3ebfc6" stroke-width="1.4"><animate attributeName="r" values="4.5;11" dur="1.6s" repeatCount="indefinite"/><animate attributeName="opacity" values="0.6;0" dur="1.6s" repeatCount="indefinite"/></circle><text x="826" y="46" text-anchor="end" font-family="ui-monospace,Menlo,monospace" font-size="12" font-weight="600" fill="#3ebfc6">LIVE</text>
<text x="107.8" y="122" text-anchor="middle" font-family="Georgia,serif" font-size="32" font-weight="700" fill="#3ebfc6">50</text><text x="107.8" y="145" text-anchor="middle" font-family="ui-monospace,Menlo,monospace" font-size="11.5" fill="#8a93a0">Stars earned</text>
<text x="267.4" y="122" text-anchor="middle" font-family="Georgia,serif" font-size="32" font-weight="700" fill="#3ebfc6">1,306</text><text x="267.4" y="145" text-anchor="middle" font-family="ui-monospace,Menlo,monospace" font-size="11.5" fill="#8a93a0">Commits</text>
<line x1="187.6" y1="100" x2="187.6" y2="150" stroke="#1b1e24" stroke-width="1"/>
<text x="427.0" y="122" text-anchor="middle" font-family="Georgia,serif" font-size="32" font-weight="700" fill="#3ebfc6">42</text><text x="427.0" y="145" text-anchor="middle" font-family="ui-monospace,Menlo,monospace" font-size="11.5" fill="#8a93a0">Pull requests</text>
<line x1="347.2" y1="100" x2="347.2" y2="150" stroke="#1b1e24" stroke-width="1"/>
<text x="586.6" y="122" text-anchor="middle" font-family="Georgia,serif" font-size="32" font-weight="700" fill="#3ebfc6">26</text><text x="586.6" y="145" text-anchor="middle" font-family="ui-monospace,Menlo,monospace" font-size="11.5" fill="#8a93a0">Repositories</text>
<line x1="506.8" y1="100" x2="506.8" y2="150" stroke="#1b1e24" stroke-width="1"/>
<text x="746.2" y="122" text-anchor="middle" font-family="Georgia,serif" font-size="32" font-weight="700" fill="#3ebfc6">3</text><text x="746.2" y="145" text-anchor="middle" font-family="ui-monospace,Menlo,monospace" font-size="11.5" fill="#8a93a0">Followers</text>
<line x1="666.4" y1="100" x2="666.4" y2="150" stroke="#1b1e24" stroke-width="1"/>
<rect x="28" y="172" width="798" height="9" rx="4.5" fill="#1b1e24"/>
<rect x="28.0" y="172" width="644.0" height="9" fill="#3572A5"/>
<rect x="672.0" y="172" width="96.7" height="9" fill="#DA5B0B"/>
<rect x="768.6" y="172" width="24.6" height="9" fill="#f34b7d"/>
<rect x="793.2" y="172" width="13.9" height="9" fill="#A97BFF"/>
<rect x="807.2" y="172" width="9.8" height="9" fill="#f1e05a"/>
<rect x="817.0" y="172" width="9.0" height="9" fill="#3A4E3A"/>
<circle cx="32.0" cy="196" r="4" fill="#3572A5"/><text x="41.0" y="200" font-family="ui-monospace,Menlo,monospace" font-size="11" fill="#c9d1d9">Python 78.6%</text>
<circle cx="129.2" cy="196" r="4" fill="#DA5B0B"/><text x="138.2" y="200" font-family="ui-monospace,Menlo,monospace" font-size="11" fill="#c9d1d9">Jupyter Notebook 11.8%</text>
<circle cx="292.4" cy="196" r="4" fill="#f34b7d"/><text x="301.4" y="200" font-family="ui-monospace,Menlo,monospace" font-size="11" fill="#c9d1d9">C++ 3.0%</text>
<circle cx="363.2" cy="196" r="4" fill="#A97BFF"/><text x="372.2" y="200" font-family="ui-monospace,Menlo,monospace" font-size="11" fill="#c9d1d9">Kotlin 1.7%</text>
<circle cx="453.8" cy="196" r="4" fill="#f1e05a"/><text x="462.8" y="200" font-family="ui-monospace,Menlo,monospace" font-size="11" fill="#c9d1d9">JavaScript 1.2%</text>
<text x="826" y="220" text-anchor="end" font-family="ui-monospace,Menlo,monospace" font-size="10" fill="#8a93a0">auto-synced every ~5 min &#183; GitHub Actions</text>
</svg>
